<svg width="55" height="17" viewBox="0 0 55 17" fill="none" xmlns="http://www.w3.org/2000/svg">
<path d="M1.39062 13.832C1.39062 13.5 1.44596 13.1582 1.55664 12.8066C2.11654 12.6504 2.64062 12.5755 3.12891 12.582C3.00521 11.3125 2.90104 9.92578 2.81641 8.42188C2.73177 6.91146 2.67318 5.51823 2.64062 4.24219H2.63086L1.23438 4.03711C1.14974 3.79622 1.08464 3.5293 1.03906 3.23633C0.99349 2.94336 0.970703 2.66016 0.970703 2.38672C0.970703 2.17839 0.986979 1.95052 1.01953 1.70312C1.71615 1.39714 2.8099 1.18229 4.30078 1.05859C5.79167 0.928385 7.27279 0.863281 8.74414 0.863281C9.73372 0.863281 10.5736 0.941406 11.2637 1.09766C11.9538 1.25391 12.5299 1.60872 12.9922 2.16211C13.4609 2.70898 13.6953 3.5293 13.6953 4.62305C13.6953 6.64779 13.207 9.30404 12.2305 12.5918C12.0677 13.1322 11.8854 13.6172 11.6836 14.0469C11.4818 14.4766 11.2246 14.8477 10.9121 15.1602C10.6452 15.4596 10.3685 15.6875 10.082 15.8438C9.80208 15.9935 9.46354 16.0684 9.06641 16.0684C8.86458 16.0684 8.59115 16.0358 8.24609 15.9707C7.81641 15.8861 7.43555 15.7786 7.10352 15.6484C6.77148 15.5117 6.49479 15.375 6.27344 15.2383C6.05859 15.1016 5.80143 14.929 5.50195 14.7207C5.37174 14.9095 5.15365 15.1178 4.84766 15.3457C4.54818 15.5736 4.21615 15.7689 3.85156 15.9316C3.48698 16.0944 3.14844 16.1823 2.83594 16.1953C2.38672 16.026 2.0319 15.7266 1.77148 15.2969C1.51758 14.8607 1.39062 14.3724 1.39062 13.832ZM8.91016 12.5039C9.09245 11.6055 9.23568 10.5638 9.33984 9.37891C9.44401 8.1875 9.5319 6.90169 9.60352 5.52148L9.64258 4.82812C9.60352 4.75651 9.44401 4.6849 9.16406 4.61328C8.89062 4.54167 8.5293 4.50586 8.08008 4.50586L7.31836 4.49609C6.95378 4.49609 6.66081 4.51237 6.43945 4.54492C6.43945 4.81836 6.44271 5.04948 6.44922 5.23828C6.46875 6.37109 6.47852 7.38346 6.47852 8.27539C6.47852 9.31055 6.46875 10.7819 6.44922 12.6895C7.30208 12.6895 8.1224 12.6276 8.91016 12.5039ZM15.9609 15.5215C15.9609 15.2415 15.9479 14.4115 15.9219 13.0312C15.8698 11.013 15.8438 9.26823 15.8438 7.79688C15.8438 6.35807 15.8698 5.14062 15.9219 4.14453L14.3301 3.93945C14.2324 3.54232 14.1673 3.21354 14.1348 2.95312C14.1022 2.6862 14.0892 2.38021 14.0957 2.03516C14.2259 1.8724 14.4668 1.69987 14.8184 1.51758C15.1764 1.32878 15.5801 1.17253 16.0293 1.04883C16.485 0.92513 16.9245 0.863281 17.3477 0.863281C18.1029 0.863281 18.7181 1.03255 19.1934 1.37109C19.6751 1.70964 19.929 2.19792 19.9551 2.83594C19.9681 3.21354 19.9746 3.53581 19.9746 3.80273C19.9746 5.0332 19.9225 6.51758 19.8184 8.25586C19.7142 9.98763 19.5742 12.0352 19.3984 14.3984L19.3008 15.7754C18.7865 16.0618 18.2005 16.2051 17.543 16.2051C16.9831 16.2051 16.4557 16.1042 15.9609 15.9023V15.5215ZM21.6445 13.8613C21.6445 13.5293 21.7064 13.194 21.8301 12.8555C21.9538 12.5169 22.1458 12.1979 22.4062 11.8984C23.3568 12.3151 24.1836 12.6341 24.8867 12.8555C25.5964 13.0768 26.3255 13.1875 27.0742 13.1875C27.2109 13.1875 27.3509 13.1745 27.4941 13.1484C27.6439 13.1224 27.7611 13.0866 27.8457 13.041C27.8783 12.9694 27.9043 12.8783 27.9238 12.7676C27.9434 12.6504 27.9531 12.556 27.9531 12.4844C27.9531 12.1654 27.8001 11.8919 27.4941 11.6641C27.1882 11.4362 26.7845 11.2083 26.2832 10.9805L25.9414 10.8145C24.9648 10.3132 24.1803 9.86393 23.5879 9.4668C23.002 9.06315 22.5039 8.53581 22.0938 7.88477C21.6901 7.22721 21.4883 6.42318 21.4883 5.47266C21.4883 4.07943 21.8757 2.96289 22.6504 2.12305C23.4316 1.2832 24.6719 0.863281 26.3711 0.863281C27.8229 0.863281 28.972 0.951172 29.8184 1.12695C30.1699 1.33529 30.4759 1.55339 30.7363 1.78125C31.0033 2.0026 31.2572 2.27279 31.498 2.5918C31.498 3.04753 31.4525 3.54232 31.3613 4.07617C31.2767 4.60352 31.1562 5.08854 31 5.53125C30.8503 5.97396 30.6875 6.29297 30.5117 6.48828C30.362 6.5599 30.196 6.61523 30.0137 6.6543C29.8314 6.68685 29.6068 6.70312 29.3398 6.70312C29.0599 6.70312 28.832 6.68359 28.6562 6.64453C28.4805 6.60547 28.3177 6.54036 28.168 6.44922L27.8652 4.41797C27.4876 4.3138 27.0872 4.23893 26.6641 4.19336C26.2409 4.14128 25.9544 4.11849 25.8047 4.125C25.5638 4.23568 25.3978 4.39193 25.3066 4.59375C25.222 4.78906 25.1797 5.02344 25.1797 5.29688C25.1797 5.58984 25.2578 5.84375 25.4141 6.05859C25.5768 6.26693 25.7721 6.43945 26 6.57617C26.2279 6.71289 26.5208 6.86589 26.8789 7.03516L27.3086 7.25C28.2396 7.73828 28.972 8.16471 29.5059 8.5293C30.0397 8.89388 30.4857 9.35612 30.8438 9.91602C31.2083 10.4694 31.3906 11.14 31.3906 11.9277C31.3906 12.8457 31.1497 13.6367 30.668 14.3008C30.1862 14.9583 29.5677 15.4336 28.8125 15.7266C28.4023 15.8893 27.9499 16.0065 27.4551 16.0781C26.9603 16.1497 26.3874 16.1855 25.7363 16.1855C25.2936 16.1855 24.8184 16.1302 24.3105 16.0195C23.8027 15.9089 23.3079 15.7135 22.8262 15.4336C22.3509 15.1536 21.9701 14.7793 21.6836 14.3105C21.6576 14.1868 21.6445 14.0371 21.6445 13.8613ZM32.4844 8.53906C32.4844 7.0612 32.7025 5.74609 33.1387 4.59375C33.5814 3.4349 34.2715 2.52018 35.209 1.84961C36.1465 1.17904 37.3314 0.84375 38.7637 0.84375C39.7402 0.84375 40.7721 0.970703 41.8594 1.22461C42.2109 1.43294 42.5169 1.65104 42.7773 1.87891C43.0443 2.10026 43.2982 2.37044 43.5391 2.68945C43.5391 3.15169 43.4772 3.76693 43.3535 4.53516C43.2298 5.29688 43.0736 6.00977 42.8848 6.67383C42.7025 7.33138 42.5267 7.75781 42.3574 7.95312C42.1882 8.03776 42.0449 8.09635 41.9277 8.12891C41.8105 8.15495 41.6283 8.16797 41.3809 8.16797C41.0749 8.16797 40.7884 8.14518 40.5215 8.09961C40.2546 8.05404 40.0527 7.99219 39.916 7.91406L39.5742 4.62305C39.112 4.49284 38.4707 4.42773 37.6504 4.42773C37.429 4.42773 37.2663 4.43099 37.1621 4.4375C36.8822 5.33594 36.7259 6.54362 36.6934 8.06055C36.6868 8.24284 36.6836 8.51953 36.6836 8.89062C36.6836 9.76302 36.7292 10.4694 36.8203 11.0098C36.9049 11.5176 36.9961 11.8984 37.0938 12.1523C37.1914 12.4062 37.3607 12.6016 37.6016 12.7383C37.849 12.875 38.2168 12.9434 38.7051 12.9434C39.3626 12.9434 39.9681 12.849 40.5215 12.6602C41.0814 12.4648 41.6901 12.1816 42.3477 11.8105C42.5951 12.0775 42.7839 12.2956 42.9141 12.4648C43.0508 12.6341 43.1745 12.8424 43.2852 13.0898C43.4023 13.3372 43.4805 13.6204 43.5195 13.9395C43.4154 14.1543 43.1387 14.4408 42.6895 14.7988C42.2402 15.1569 41.651 15.4792 40.9219 15.7656C40.1927 16.0521 39.3757 16.1953 38.4707 16.1953C36.3548 16.1953 34.8281 15.5345 33.8906 14.2129C32.9531 12.8913 32.4844 11 32.4844 8.53906ZM47.123 8.48047C46.791 8.27214 46.4622 7.9987 46.1367 7.66016C45.8112 7.32161 45.5378 6.93099 45.3164 6.48828C45.1016 6.04557 44.9941 5.58333 44.9941 5.10156C44.9941 4.13802 45.209 3.34049 45.6387 2.70898C46.0684 2.07747 46.6445 1.61198 47.3672 1.3125C48.0964 1.01302 48.9134 0.863281 49.8184 0.863281C51.3418 0.863281 52.5202 1.17578 53.3535 1.80078C54.1868 2.41927 54.6035 3.35352 54.6035 4.60352C54.6035 5.3457 54.3789 6.00326 53.9297 6.57617C53.4805 7.14909 52.9466 7.6276 52.3281 8.01172C53.1615 8.44141 53.8092 8.98177 54.2715 9.63281C54.7402 10.2839 54.9746 10.9902 54.9746 11.752C54.9746 12.6374 54.7565 13.4154 54.3203 14.0859C53.8906 14.7565 53.2852 15.2773 52.5039 15.6484C51.7292 16.013 50.8438 16.1953 49.8477 16.1953C48.9232 16.1953 48.0605 16.0293 47.2598 15.6973C46.4655 15.3652 45.8242 14.8802 45.3359 14.2422C44.8542 13.5977 44.6133 12.8294 44.6133 11.9375C44.6133 11.3646 44.7305 10.8665 44.9648 10.4434C45.1992 10.0202 45.4857 9.66862 45.8242 9.38867C46.1628 9.10872 46.5957 8.80599 47.123 8.48047ZM51.3223 4.41797C51.3223 4.21615 51.3092 4.04688 51.2832 3.91016C51.1204 3.77995 50.9154 3.68229 50.668 3.61719C50.4271 3.55208 50.1667 3.51953 49.8867 3.51953C49.6589 3.51953 49.4375 3.54232 49.2227 3.58789C49.0143 3.62695 48.8288 3.68555 48.666 3.76367C48.6074 3.84831 48.5586 4.04362 48.5195 4.34961C48.487 4.64909 48.4707 4.90625 48.4707 5.12109C48.6335 5.42708 48.9134 5.73958 49.3105 6.05859C49.7077 6.37109 50.1471 6.66081 50.6289 6.92773C50.8112 6.67383 50.9707 6.28971 51.1074 5.77539C51.2507 5.26107 51.3223 4.80859 51.3223 4.41797ZM49.8379 13.6562C50.4694 13.6562 50.9609 13.5163 51.3125 13.2363C51.3711 13.1257 51.4167 12.9108 51.4492 12.5918C51.4818 12.2728 51.498 12.0124 51.498 11.8105C51.2832 11.5046 50.9382 11.1823 50.4629 10.8438C49.9876 10.4987 49.4668 10.1927 48.9004 9.92578C48.6139 10.1016 48.36 10.3424 48.1387 10.6484C47.9173 10.9544 47.748 11.2897 47.6309 11.6543C47.6569 11.9863 47.7513 12.3281 47.9141 12.6797C48.0833 13.0312 48.2852 13.2884 48.5195 13.4512C48.9297 13.5879 49.3691 13.6562 49.8379 13.6562Z" fill="white"/>
</svg>
